<?xml version="1.0" standalone="no"?>
<!DOCTYPE svg PUBLIC "-//W3C//DTD SVG 20010904//EN"
 "http://www.w3.org/TR/2001/REC-SVG-20010904/DTD/svg10.dtd">
<svg version="1.0" xmlns="http://www.w3.org/2000/svg"
 width="512.000000pt" height="512.000000pt" viewBox="0 0 512.000000 512.000000"
 preserveAspectRatio="xMidYMid meet">
<metadata>
Created by potrace 1.14, written by Peter Selinger 2001-2017
</metadata>
<g transform="translate(0.000000,512.000000) scale(0.100000,-0.100000)"
fill="#000000" stroke="none">
<path d="M1339 5096 c-165 -58 -308 -202 -393 -393 -89 -204 -103 -508 -37
-823 96 -462 367 -991 663 -1296 l50 -51 482 207 c265 115 513 222 551 239
l68 31 -6 202 c-7 270 -36 444 -128 763 -142 492 -338 799 -642 1004 -187 127
-443 176 -608 117z"/>
<path d="M2230 2639 c-289 -122 -527 -223 -528 -225 -9 -7 21 -310 39 -399 26
-127 79 -287 130 -392 83 -172 246 -382 372 -479 l38 -29 -66 -388 -66 -388
26 -44 c79 -135 305 -244 582 -280 151 -20 466 -20 620 0 264 35 470 117 549
221 l27 35 -53 260 c-61 293 -46 270 -157 244 -178 -42 -469 -24 -689 43 l-56
17 147 -3 c219 -6 403 32 570 115 170 85 362 255 468 414 56 85 127 225 127
251 0 11 -19 10 -92 -9 -208 -51 -395 -73 -623 -73 -484 0 -930 128 -1312 376
-46 29 -83 55 -83 58 0 2 45 -16 100 -39 382 -166 789 -242 1163 -216 549 37
912 172 1000 370 31 70 21 186 -22 268 -107 200 -401 353 -851 443 -229 46
-368 61 -610 66 l-225 4 -525 -221z m1246 -28 c249 -46 432 -121 528 -214 80
-78 87 -141 25 -212 -55 -62 -192 -117 -384 -151 -111 -20 -387 -28 -521 -16
-305 30 -576 124 -694 242 -156 156 47 317 467 370 119 15 454 4 579 -19z"/>
</g>
</svg>
